<svg id="svg" xmlns="http://www.w3.org/2000/svg" xmlns:xlink="http://www.w3.org/1999/xlink" width="400" height="400" viewBox="0, 0, 600, 600"><g id="svgg"><path id="path0" d="M204.844 2.389 C 198.880 5.369,196.722 7.895,192.433 16.918 C 185.828 30.814,179.126 55.605,177.649 71.609 C 176.935 79.341,177.218 79.150,169.096 77.381 C 147.404 72.655,123.401 73.707,105.286 80.177 C 80.925 88.878,76.347 98.366,93.276 105.065 L 100.682 107.996 92.086 113.739 C 19.540 162.210,-1.408 252.548,44.113 320.632 C 107.061 414.783,252.202 427.808,334.260 346.669 C 404.566 277.151,392.095 169.724,307.163 113.254 L 299.091 107.887 302.084 106.615 C 303.731 105.915,306.929 104.641,309.191 103.783 C 319.235 99.974,317.980 91.632,306.474 85.727 C 284.658 74.532,258.410 71.492,231.538 77.049 C 228.305 77.717,225.476 78.080,225.251 77.855 C 223.705 76.309,230.021 51.233,235.163 38.505 C 238.605 29.985,239.063 28.181,239.063 23.144 C 239.063 5.437,220.850 -5.609,204.844 2.389 M220.739 18.324 C 223.313 20.898,223.218 24.321,220.402 30.556 C 213.534 45.758,207.870 71.347,207.828 87.365 C 207.803 96.710,212.566 99.769,221.972 96.450 C 239.977 90.095,271.108 89.201,284.986 94.640 C 286.983 95.422,287.021 95.526,285.626 96.369 C 284.809 96.862,279.469 100.709,273.758 104.919 C 264.020 112.095,257.707 115.498,251.779 116.764 C 242.530 118.740,243.260 128.383,253.064 133.746 C 260.210 137.655,268.661 145.929,272.834 153.102 C 276.299 159.059,276.424 158.762,271.093 157.238 C 267.977 156.348,262.825 155.977,252.344 155.888 C 236.934 155.757,233.827 155.099,228.373 150.809 C 222.205 145.957,215.673 150.355,215.255 159.643 C 214.808 169.601,208.739 181.609,201.576 186.709 L 199.065 188.497 194.427 183.547 C 187.271 175.910,183.594 166.984,183.594 157.255 C 183.594 149.651,176.712 146.955,169.353 151.677 C 163.597 155.371,158.357 156.327,146.875 155.777 C 137.586 155.333,129.937 156.190,124.691 158.263 C 123.452 158.752,123.644 158.029,125.863 153.838 C 129.587 146.804,138.696 137.776,146.204 133.679 C 157.230 127.661,156.639 119.372,144.945 116.032 C 138.342 114.146,135.847 112.725,125.328 104.856 C 120.206 101.025,115.215 97.468,114.236 96.953 C 111.537 95.531,112.635 94.820,120.515 92.889 C 135.402 89.239,155.491 90.450,176.391 96.256 C 190.084 100.060,192.369 98.234,193.213 82.813 C 194.489 59.499,205.266 20.893,211.514 17.255 C 214.128 15.733,218.675 16.260,220.739 18.324 M121.875 122.966 C 124.238 124.695,126.311 126.204,126.482 126.320 C 126.652 126.436,124.319 129.133,121.298 132.314 C 111.024 143.130,101.563 163.461,101.563 174.722 C 101.563 182.007,109.338 184.580,116.943 179.812 C 126.628 173.738,132.353 172.375,148.828 172.220 C 156.992 172.143,164.770 171.720,166.112 171.279 C 168.510 170.492,168.569 170.534,169.509 173.716 C 173.330 186.639,189.282 204.927,198.310 206.732 C 206.470 208.364,224.330 189.776,229.293 174.487 L 230.601 170.459 233.074 171.270 C 234.434 171.716,242.227 172.152,250.391 172.239 C 266.645 172.412,268.712 172.842,279.151 178.222 C 281.809 179.593,284.971 181.221,286.176 181.842 C 291.017 184.334,297.656 180.202,297.656 174.697 C 297.656 163.286,287.826 142.618,277.072 131.419 C 273.276 127.466,272.529 126.302,273.450 125.776 C 274.088 125.412,276.519 123.682,278.852 121.932 C 284.003 118.069,282.771 118.013,290.476 122.461 C 357.805 161.336,382.726 241.030,347.094 303.516 C 304.956 377.408,202.139 405.608,120.516 365.659 C 29.093 320.913,8.618 216.404,77.726 147.250 C 91.007 133.960,113.838 117.603,116.719 119.313 C 117.191 119.593,119.512 121.237,121.875 122.966 M319.247 180.966 C 317.603 182.610,317.188 183.770,317.188 186.719 C 317.188 189.667,317.603 190.827,319.247 192.472 C 320.892 194.116,322.051 194.531,325.000 194.531 C 327.949 194.531,329.108 194.116,330.753 192.472 C 332.397 190.827,332.813 189.667,332.813 186.719 C 332.813 183.770,332.397 182.610,330.753 180.966 C 329.108 179.321,327.949 178.906,325.000 178.906 C 322.051 178.906,320.892 179.321,319.247 180.966 M334.597 207.565 C 329.340 208.626,328.222 212.929,330.457 223.514 C 337.039 254.703,326.260 287.418,300.750 313.673 C 290.113 324.620,289.188 326.932,293.429 331.971 C 298.378 337.853,305.895 334.106,318.367 319.541 C 337.971 296.646,347.376 273.345,348.223 245.571 C 349.073 217.665,344.720 205.523,334.597 207.565 " stroke="none" fill="#FFFFFF" fill-rule="evenodd"></path></g></svg>